<svg height="49" viewBox="0 0 91 49" width="91" xmlns="http://www.w3.org/2000/svg"><g fill="none" transform="translate(.25834 .25834)"><g fill="#ffda00"><path d="m31.8808015 15.2018256c-3.9755274-3.9811028-10.2096614-4.599521-14.8898539-1.4770546s-6.5029444 9.1161667-4.3535331 14.3155926c2.1494113 5.1994258 7.6723445 8.1564643 13.1911937 7.0627084s9.4965375-5.9336798 9.500527-11.5598671c.0097574-3.1292241-1.2317869-6.1325197-3.4483337-8.3413793z"/><path d="m23.8657979 9.26924613c1.0123698-.00189761 1.8325851-.82211296 1.8344827-1.83448276v-5.51724138c.0292579-.67499547-.3141814-1.31162335-.8943548-1.65785114-.5801735-.3462278-1.3035307-.3462278-1.8837041 0-.5801735.34622779-.9236128.98285567-.8943549 1.65785114v5.51724138c.003792 1.01292733.8249984 1.83259298 1.8379311 1.83448276z"/><path d="m23.8657979 38.4589013c-1.0134908.0037817-1.8341494.8244403-1.8379311 1.837931v5.5172414c-.0292579.6749955.3141814 1.3116234.8943549 1.6578512.5801734.3462278 1.3035306.3462278 1.8837041 0 .5801734-.3462278.9236127-.9828557.8943548-1.6578512v-5.5172414c-.0018898-1.0129326-.8215554-1.834139-1.8344827-1.837931z"/><path d="m45.8037289 22.0451082h-5.5172414c-.6749955-.0292579-1.3116233.3141814-1.6578511.8943549-.3462278.5801734-.3462278 1.3035306 0 1.883704.3462278.5801735.9828556.9236128 1.6578511.8943549h5.5172414c.6749955.0292579 1.3116233-.3141814 1.6578511-.8943549.3462278-.5801734.3462278-1.3035306 0-1.883704-.3462278-.5801735-.9828556-.9236128-1.6578511-.8943549z"/><path d="m9.27269441 23.8830392c-.00378173-1.0134907-.82444033-1.8341493-1.83793104-1.837931h-5.51724138c-.67499547-.0292579-1.31162335.3141814-1.65785114.8943549-.3462278.5801734-.3462278 1.3035306 0 1.883704.34622779.5801735.98285567.9236128 1.65785114.8943549h5.51724138c1.01293267-.0018898 1.83413904-.8215554 1.83793104-1.8344828z"/><path d="m36.8002806 34.2002806c-.7233047-.6842915-1.8599826-.6681651-2.5635836.0363704-.7036011.7045354-.7182189 1.8412337-.0329681 2.5636296l3.8965517 3.8931035c.4535847.5089428 1.1519874.724381 1.8134585.5594024.661471-.1649785 1.1769004-.6831605 1.3383535-1.3455009s-.0577019-1.3595857-.5690534-1.8104533z"/><path d="m10.9657979 13.5623496c.7194108.7144837 1.8805892.7144837 2.6 0 .7140833-.7182311.7140833-1.8783207 0-2.5965517l-3.89655177-3.89655177c-.72177903-.71701796-1.88815445-.71315835-2.60517241.00862069s-.71315835 1.88815445.00862069 2.60517241z"/><path d="m13.5347634 34.2623496c-.7186315-.7163719-1.8813686-.7163719-2.6 0l-3.89310348 3.8931034c-.71797017.7198746-.71642633 1.8854781.00344828 2.6034483.7198746.7179702 1.8854781.7164263 2.60344828-.0034483l3.89655172-3.8965517c.7140833-.718231.7140833-1.8783207 0-2.5965517z"/><path d="m36.7726944 13.6209703 3.9103448-3.89310348c.7144838-.7194108.7144838-1.8805892 0-2.6-.718231-.71408333-1.8783207-.71408333-2.5965517 0l-3.8965517 3.89655168c-.6842915.7233048-.6681651 1.8599826.0363703 2.5635837.7045355.703601 1.8412337.7182189 2.5636297.0329681z"/></g><g fill="#54565a"><path d="m60.6244185 4.25545303c-.899915-.00234411-1.7119866.53948074-2.0553147 1.3713331-.3433282.83185236-.1498052 1.7887135.4897975 2.42177035.8665157.86556351 2.2706434.86479159 3.1362069-.00172414s.8647916-2.27064339-.0017241-3.1362069c-.4101604-.42555731-.9779712-.66266512-1.5689656-.65517241z"/><path d="m60.6244185 10.1002806c-.4968152-.0062183-.9743502.1920272-1.3206896.5482759-.3599746.3537673-.5582961.8402162-.5482759 1.3448276v18.4034482c-.0128965.5081777.1856496.9989238.5482759 1.3551725.7324385.7318064 1.9192856.7318064 2.6517241 0 .3609264-.3545015.5646323-.8389242.5655173-1.3448276v-18.4137931c-.000885-.5059035-.2045909-.9903261-.5655173-1.3448276-.3492894-.3581896-.8307998-.556532-1.3310345-.5482759z"/><path d="m87.4692461 8.68993579c.9005435.00375111 1.7139014-.53755951 2.0581174-1.36973013.344216-.83217063.1509056-1.78987586-.4891519-2.42337332-.8665157-.86651567-2.2714152-.86651565-3.1379309.00000006-.8665157.8665157-.8665158 2.27141523-.0000001 3.13793097.4103971.42521087.978051.66225317 1.5689655.65517242z"/><path d="m87.4692461 10.1002806c-.498165-.0079937-.9774422.190457-1.3241379.5482759-.3608946.3534146-.56043.839782-.5517241 1.3448276v18.4034482c-.0087059.5050456.1908295.991413.5517241 1.3448276.3511572.3512323.8274736.5485588 1.3241379.5485588.4966644 0 .9729808-.1973265 1.324138-.5485588.3631778-.3532557.5683399-.8381843.5689655-1.3448276v-18.4034482c-.0006256-.5066433-.2057877-.9915719-.5689655-1.3448276-.3466958-.3578189-.825973-.5562696-1.324138-.5482759z"/><path d="m81.2726944 10.0967195c-.5056497-.0046398-.9922596.1927351-1.3517241.5483887l-5.7517242 6.3103448-5.7551724-6.3103448c-.3590325-.3563084-.8459282-.5537993-1.3517241-.5483887-.496595 0-.9728508.1973844-1.3239965.5485301s-.5485758.8274015-.5485758 1.3239965c-.0064804.5040021.195721.9882871.5587792 1.3379311l6.5344827 7.0931034v10c-.010358.5053551.189436.992353.5517242 1.3448276.3511572.3512322.8274736.5485588 1.3241379.5485588s.9729807-.1973266 1.3241379-.5485588c.3618679-.35415.566786-.8385018.5689656-1.3448276v-10l6.5517241-7.0931034c.544228-.5328282.7114773-1.3422158.4230083-2.0471099-.288469-.704894-.9751667-1.1648146-1.7368014-1.1633478z"/></g><g fill="#898a8d"><path d="m67.8864875 35.3209703c-.0177475-.0481577-.0460213-.0917463-.0827586-.1275862-.0649947-.0591017-.1500959-.0911688-.237931-.0897065-.0878352-.0014623-.1729364.0306048-.2379311.0897065-.0389974.0346115-.0686455.0784908-.0862069.1275862l-2.337931 5.5172413c-.0184139.0412179-.0278188.0858911-.0276032.1310345-.0009044.0837438.0358004.1634818.100017.2172414.1332063.1269842.3426557.1269842.4758621 0 .0276629-.0370321.0475981-.0792479.0586206-.1241379l.8344828-1.9655173h2.4137931l.837931 1.9655173c.016692.0390572.0427467.073402.0758621.1.062509.0608543.1473193.0932818.2344828.0896552.0878351.0015136.1729364-.0305536.237931-.0896552.0617866-.055262.0969359-.1343479.0965559-.2172414.0002284-.0451434-.0091765-.0898166-.0275904-.1310345zm-1.2689655 3.1689655.9482759-2.2275862.9448275 2.2275862z"/><path d="m76.1244185 38.6485565c.2194665-.0902006.4205019-.2199386.5931035-.3827586.3794349-.3275145.5975606-.8039374.5975606-1.3051725 0-.501235-.2181257-.9776579-.5975606-1.3051724-.3862835-.3587339-.8970973-.5529174-1.4241379-.5413793h-1.6793104c-.0878352-.0015136-.1729364.0305535-.237931.0896552-.0627033.0549031-.0990686.1339036-.1.2172414v5.5448276c.0009314.0833377.0372967.1623382.1.2172413.1327414.1248078.3396724.1248078.4724138 0 .0642166-.0537596.1009214-.1334976.1-.2172413v-2.1551725h1.4931034l1.5724138 2.3068966c.0646189.1007613.1768702.1608026.2965517.1586207.0866494.000638.1703629-.0313701.2344828-.0896552.0642166-.0537596.1009214-.1334976.1-.2172414.0018537-.0610292-.0176602-.1207904-.0551724-.1689655zm-.8344827-.4551724h-1.3448276v-2.462069h1.3448276c.3494785-.0098292.6896498.1134213.9517241.3448276.2497037.2212115.3926495.5388175.3926495.8724138 0 .3335962-.1429458.6512023-.3926495.8724138-.2594498.2376593-.5999145.3671839-.9517241.3620689z"/><path d="m85.0278668 35.1036776h-4.3689655c-.0878352-.0014623-.1729364.0306048-.237931.0897065-.0635344.0550184-.1000392.13492-.1000392.2189655s.0365048.1639471.1000392.2189655c.0649946.0591017.1500958.0911688.237931.0896552h1.8482759v5.2344827c-.0003842.0828935.0347651.1619794.0965517.2172414.0649946.0591017.1500958.0911688.237931.0897064.0878352.0014624.1729364-.0306047.2379311-.0897064.0627032-.0549031.0990685-.1339036.1-.2172414v-5.2344827h1.8482758c.0878352.0015136.1729364-.0305535.2379311-.0896552.0615149-.0561848.0965591-.1356539.0965591-.2189655s-.0350442-.1627807-.0965591-.2189655c-.0649947-.0591017-.1500959-.0911688-.2379311-.0897065z"/><path d="m89.055453 35.1037289c-.0878351-.0015136-.1729364.0305535-.237931.0896552-.0617866.055262-.0969359.1343479-.0965548.2172413v5.5448276c-.0003811.0828935.0347682.1619794.0965548.2172414.1332063.1269842.3426558.1269842.4758621 0 .0627032-.0549031.0990685-.1339036.1-.2172414v-5.5448276c-.000176-.0793611-.0325258-.1552589-.0896552-.2103448-.0664841-.0641418-.1559251-.0989244-.2482759-.0965517z"/><path d="m89.4140737 33.8485565c-.094244-.0861095-.2171694-.1340504-.3448276-.1344837-.1277847-.0002382-.250945.0477943-.3448276.1344837-.0947054.0825141-.1490663.2019768-.1490663.3275862 0 .1256093.0543609.245072.1490663.3275862.0938826.0866894.2170429.1347219.3448276.1344836.1276582-.0004332.2505836-.0483741.3448276-.1344836.0926777-.0836876.1455703-.2027153.1455703-.3275862 0-.124871-.0528926-.2438987-.1455703-.3275862z"/><path d="m61.9761427 35.6899358c-.4199909-.3874502-.9735287-.597498-1.5448276-.5862069h-1.3448276c-.0878352-.0015136-.1729364.0305535-.237931.0896552-.0617866.055262-.0969359.1343479-.0965549.2172413v5.5448276c-.000381.0828935.0347683.1619794.0965549.2172414.1332063.1269842.3426557.1269842.475862 0 .0627033-.0549031.0990686-.1339036.1-.2172414v-5.2344827h1.0068966c.3956961-.008646.7791726.1373224 1.0689655.4068965.2807222.2480716.4414892.6046846.4414892.9793104 0 .3746257-.160767.7312387-.4414892.9793103-.2911028.2670722-.6739943.4115829-1.0689655.4034483h-.6896552v.6172414h.6896552c.5712989.0112911 1.1248367-.1987567 1.5448276-.5862069.4055738-.3586776.6378135-.8740935.6378135-1.4155173 0-.5414237-.2322397-1.0568397-.6378135-1.4155172z"/></g><path d="m51.317522.248556h1v47.317241h-1z" fill="#54565a"/></g></svg>